<svg width="203" height="20" viewBox="0 0 203 20" fill="none" xmlns="http://www.w3.org/2000/svg">
<path d="M0.542969 19V4.68359H5.47461C6.58789 4.68359 7.4375 4.75195 8.02344 4.88867C8.84375 5.07747 9.54362 5.41927 10.123 5.91406C10.8783 6.55208 11.4414 7.36914 11.8125 8.36523C12.1901 9.35482 12.3789 10.4876 12.3789 11.7637C12.3789 12.8509 12.252 13.8145 11.998 14.6543C11.7441 15.4941 11.4186 16.1908 11.0215 16.7441C10.6243 17.291 10.1882 17.724 9.71289 18.043C9.24414 18.3555 8.67448 18.5931 8.00391 18.7559C7.33984 18.9186 6.57487 19 5.70898 19H0.542969ZM2.4375 17.3105H5.49414C6.43815 17.3105 7.17708 17.2227 7.71094 17.0469C8.2513 16.8711 8.68099 16.6237 9 16.3047C9.44922 15.8555 9.79753 15.2533 10.0449 14.498C10.2988 13.7363 10.4258 12.8151 10.4258 11.7344C10.4258 10.237 10.1784 9.08789 9.68359 8.28711C9.19531 7.47982 8.59961 6.93945 7.89648 6.66602C7.38867 6.4707 6.57161 6.37305 5.44531 6.37305H2.4375V17.3105Z" fill="white"/>
<path d="M20.0352 19V4.68359H30.3867V6.37305H21.9297V10.7578H29.8496V12.4375H21.9297V17.3105H30.7188V19H20.0352Z" fill="white"/>
<path d="M37.6914 14.4004L39.4785 14.2441C39.5632 14.9603 39.7585 15.5495 40.0645 16.0117C40.377 16.4674 40.8587 16.8385 41.5098 17.125C42.1608 17.4049 42.8932 17.5449 43.707 17.5449C44.4297 17.5449 45.0677 17.4375 45.6211 17.2227C46.1745 17.0078 46.5846 16.7148 46.8516 16.3438C47.125 15.9661 47.2617 15.556 47.2617 15.1133C47.2617 14.6641 47.1315 14.2734 46.8711 13.9414C46.6107 13.6029 46.181 13.3197 45.582 13.0918C45.1979 12.9421 44.3483 12.7109 43.0332 12.3984C41.7181 12.0794 40.7969 11.7799 40.2695 11.5C39.5859 11.1419 39.0749 10.6992 38.7363 10.1719C38.4043 9.63802 38.2383 9.04232 38.2383 8.38477C38.2383 7.66211 38.4434 6.98828 38.8535 6.36328C39.2637 5.73177 39.8626 5.25326 40.6504 4.92773C41.4382 4.60221 42.3138 4.43945 43.2773 4.43945C44.3385 4.43945 45.2728 4.61198 46.0801 4.95703C46.8939 5.29557 47.5189 5.79688 47.9551 6.46094C48.3913 7.125 48.6257 7.87695 48.6582 8.7168L46.8418 8.85352C46.7441 7.94857 46.4121 7.26497 45.8457 6.80273C45.2858 6.34049 44.4557 6.10938 43.3555 6.10938C42.2096 6.10938 41.373 6.32096 40.8457 6.74414C40.3249 7.16081 40.0645 7.66536 40.0645 8.25781C40.0645 8.77214 40.25 9.19531 40.6211 9.52734C40.9857 9.85938 41.9362 10.2012 43.4727 10.5527C45.0156 10.8978 46.0736 11.2005 46.6465 11.4609C47.4798 11.8451 48.0951 12.3333 48.4922 12.9258C48.8893 13.5117 49.0879 14.1888 49.0879 14.957C49.0879 15.7188 48.8698 16.4382 48.4336 17.1152C47.9974 17.7858 47.3691 18.3099 46.5488 18.6875C45.735 19.0586 44.8171 19.2441 43.7949 19.2441C42.4993 19.2441 41.4121 19.0553 40.5332 18.6777C39.6608 18.3001 38.974 17.7337 38.4727 16.9785C37.9779 16.2168 37.7174 15.3574 37.6914 14.4004Z" fill="white"/>
<path d="M74.6094 13.3848V11.7051L80.6738 11.6953V17.0078C79.7428 17.75 78.7826 18.3099 77.793 18.6875C76.8034 19.0586 75.7878 19.2441 74.7461 19.2441C73.3398 19.2441 72.0605 18.9447 70.9082 18.3457C69.7624 17.7402 68.8965 16.8678 68.3105 15.7285C67.7246 14.5892 67.4316 13.3164 67.4316 11.9102C67.4316 10.5169 67.7214 9.2181 68.3008 8.01367C68.8867 6.80273 69.7266 5.9043 70.8203 5.31836C71.9141 4.73242 73.1738 4.43945 74.5996 4.43945C75.6348 4.43945 76.569 4.60872 77.4023 4.94727C78.2422 5.2793 78.8997 5.74479 79.375 6.34375C79.8503 6.94271 80.2116 7.72396 80.459 8.6875L78.75 9.15625C78.5352 8.42708 78.2682 7.85417 77.9492 7.4375C77.6302 7.02083 77.1745 6.6888 76.582 6.44141C75.9896 6.1875 75.332 6.06055 74.6094 6.06055C73.7435 6.06055 72.9948 6.19401 72.3633 6.46094C71.7318 6.72135 71.2207 7.06641 70.8301 7.49609C70.446 7.92578 70.1465 8.39779 69.9316 8.91211C69.5671 9.79753 69.3848 10.7578 69.3848 11.793C69.3848 13.069 69.6029 14.1367 70.0391 14.9961C70.4818 15.8555 71.123 16.4935 71.9629 16.9102C72.8027 17.3268 73.6947 17.5352 74.6387 17.5352C75.459 17.5352 76.2598 17.3789 77.041 17.0664C77.8223 16.7474 78.4147 16.4089 78.8184 16.0508V13.3848H74.6094Z" fill="white"/>
<path d="M88.457 19V4.68359H90.4004L97.9199 15.9238V4.68359H99.7363V19H97.793L90.2734 7.75V19H88.457Z" fill="white"/>
<path d="M117.852 14.4004L119.639 14.2441C119.723 14.9603 119.919 15.5495 120.225 16.0117C120.537 16.4674 121.019 16.8385 121.67 17.125C122.321 17.4049 123.053 17.5449 123.867 17.5449C124.59 17.5449 125.228 17.4375 125.781 17.2227C126.335 17.0078 126.745 16.7148 127.012 16.3438C127.285 15.9661 127.422 15.556 127.422 15.1133C127.422 14.6641 127.292 14.2734 127.031 13.9414C126.771 13.6029 126.341 13.3197 125.742 13.0918C125.358 12.9421 124.508 12.7109 123.193 12.3984C121.878 12.0794 120.957 11.7799 120.43 11.5C119.746 11.1419 119.235 10.6992 118.896 10.1719C118.564 9.63802 118.398 9.04232 118.398 8.38477C118.398 7.66211 118.604 6.98828 119.014 6.36328C119.424 5.73177 120.023 5.25326 120.811 4.92773C121.598 4.60221 122.474 4.43945 123.438 4.43945C124.499 4.43945 125.433 4.61198 126.24 4.95703C127.054 5.29557 127.679 5.79688 128.115 6.46094C128.551 7.125 128.786 7.87695 128.818 8.7168L127.002 8.85352C126.904 7.94857 126.572 7.26497 126.006 6.80273C125.446 6.34049 124.616 6.10938 123.516 6.10938C122.37 6.10938 121.533 6.32096 121.006 6.74414C120.485 7.16081 120.225 7.66536 120.225 8.25781C120.225 8.77214 120.41 9.19531 120.781 9.52734C121.146 9.85938 122.096 10.2012 123.633 10.5527C125.176 10.8978 126.234 11.2005 126.807 11.4609C127.64 11.8451 128.255 12.3333 128.652 12.9258C129.049 13.5117 129.248 14.1888 129.248 14.957C129.248 15.7188 129.03 16.4382 128.594 17.1152C128.158 17.7858 127.529 18.3099 126.709 18.6875C125.895 19.0586 124.977 19.2441 123.955 19.2441C122.66 19.2441 121.572 19.0553 120.693 18.6777C119.821 18.3001 119.134 17.7337 118.633 16.9785C118.138 16.2168 117.878 15.3574 117.852 14.4004Z" fill="white"/>
<path d="M136.836 19V4.68359H142.236C143.187 4.68359 143.913 4.72917 144.414 4.82031C145.117 4.9375 145.706 5.16211 146.182 5.49414C146.657 5.81966 147.038 6.27865 147.324 6.87109C147.617 7.46354 147.764 8.11458 147.764 8.82422C147.764 10.0417 147.376 11.0736 146.602 11.9199C145.827 12.7598 144.427 13.1797 142.402 13.1797H138.73V19H136.836ZM138.73 11.4902H142.432C143.656 11.4902 144.525 11.2624 145.039 10.8066C145.553 10.3509 145.811 9.70964 145.811 8.88281C145.811 8.28385 145.658 7.77279 145.352 7.34961C145.052 6.91992 144.655 6.63672 144.16 6.5C143.841 6.41536 143.252 6.37305 142.393 6.37305H138.73V11.4902Z" fill="white"/>
<path d="M152.119 19L157.617 4.68359H159.658L165.518 19H163.359L161.689 14.6641H155.703L154.131 19H152.119ZM156.25 13.1211H161.104L159.609 9.15625C159.154 7.95182 158.815 6.96224 158.594 6.1875C158.411 7.10547 158.154 8.01693 157.822 8.92188L156.25 13.1211Z" fill="white"/>
<path d="M182.246 13.9805L184.141 14.459C183.743 16.015 183.027 17.2031 181.992 18.0234C180.964 18.8372 179.704 19.2441 178.213 19.2441C176.67 19.2441 175.413 18.9316 174.443 18.3066C173.48 17.6751 172.744 16.7637 172.236 15.5723C171.735 14.3809 171.484 13.1016 171.484 11.7344C171.484 10.2435 171.768 8.94466 172.334 7.83789C172.907 6.72461 173.717 5.88151 174.766 5.30859C175.82 4.72917 176.979 4.43945 178.242 4.43945C179.674 4.43945 180.879 4.80404 181.855 5.5332C182.832 6.26237 183.512 7.28776 183.896 8.60938L182.031 9.04883C181.699 8.00716 181.217 7.2487 180.586 6.77344C179.954 6.29818 179.16 6.06055 178.203 6.06055C177.103 6.06055 176.182 6.32422 175.439 6.85156C174.704 7.37891 174.186 8.08854 173.887 8.98047C173.587 9.86589 173.438 10.7806 173.438 11.7246C173.438 12.9421 173.613 14.0065 173.965 14.918C174.323 15.8229 174.876 16.5 175.625 16.9492C176.374 17.3984 177.184 17.623 178.057 17.623C179.118 17.623 180.016 17.3171 180.752 16.7051C181.488 16.0931 181.986 15.1849 182.246 13.9805Z" fill="white"/>
<path d="M191.523 19V4.68359H201.875V6.37305H193.418V10.7578H201.338V12.4375H193.418V17.3105H202.207V19H191.523Z" fill="white"/>
<path d="M59.45 2H57L57.45 0H60L59.45 2Z" fill="white"/>
<path d="M59.4531 19H57V4.48047H59.4531V19Z" fill="white"/>
</svg>
